# xmcd CD database file
#
# Track frame offsets:
#	150
#	13902
#	31573
#	49314
#	65108
#	77261
#	89413
#	103370
#	116876
#	128359
#	145464
#	159415
#	177566
#	191372
#
# Disc length: 2785 seconds
#
# Revision: 2
# Processed by: cddbd v1.5.2PL0 Copyright (c) Steve Scherf et al.
# Submitted via: CDex 1.50
#
DISCID=be0adf0e
DTITLE=Emilie Simon - Emilie Simon
DYEAR=2004
DGENRE=Pop
TTITLE0=Desert
TTITLE1=Lise
TTITLE2=Secret
TTITLE3=Il Pleut
TTITLE4=I Wanna Be Your Dog
TTITLE5=To The Dancers In The Rain
TTITLE6=Dernier Lit
TTITLE7=Graines D'etoiles
TTITLE8=Flowers
TTITLE9=Vu D'ici
TTITLE10=Blue Light
TTITLE11=Chanson De Toile
TTITLE12=Desert (English Version)
TTITLE13=Femme Fatale
EXTD=YEAR: 2004
EXTT0=
EXTT1=
EXTT2=
EXTT3=
EXTT4=
EXTT5=
EXTT6=
EXTT7=
EXTT8=
EXTT9=
EXTT10=
EXTT11=
EXTT12=
EXTT13=
PLAYORDER=
